<!DOCTYPE svg PUBLIC "-//W3C//DTD SVG 20010904//EN"
 "http://www.w3.org/TR/2001/REC-SVG-20010904/DTD/svg10.dtd">
<svg version="1.0" xmlns="http://www.w3.org/2000/svg"
 width="1500.000000pt" height="1500.000000pt" viewBox="0 0 1500.000000 1500.000000"
 preserveAspectRatio="xMidYMid meet">

<g transform="translate(0.000000,1500.000000) scale(0.100000,-0.100000)"
fill="#000000" stroke="none">
<path d="M7220 14490 c-776 -31 -1555 -194 -2270 -475 -909 -357 -1701 -877
-2390 -1565 -1542 -1542 -2265 -3648 -2000 -5830 212 -1738 1103 -3363 2465
-4494 202 -168 214 -177 375 -292 513 -369 981 -625 1550 -849 741 -291 1494
-445 2312 -474 1142 -41 2261 195 3288 692 1145 554 2137 1433 2827 2504 652
1012 1018 2117 1104 3333 14 206 14 714 -1 920 -61 869 -258 1655 -608 2430
-199 441 -452 870 -754 1278 -709 957 -1683 1740 -2763 2220 -164 73 -189 83
-355 147 -377 144 -751 252 -1170 334 -487 96 -1088 141 -1610 121z m-3815
-6990 l0 -3465 -125 0 -125 0 -3 3468 -2 3468 127 -3 128 -3 0 -3465z m2087
3195 c104 -148 217 -310 252 -360 34 -49 153 -219 264 -377 417 -595 612 -872
822 -1173 537 -766 702 -1000 708 -1002 4 -1 223 307 487 684 264 378 539 770
610 872 153 218 462 659 619 885 61 87 203 289 316 450 l205 291 158 3 c104 2
157 -1 157 -8 0 -6 -77 -119 -172 -253 -94 -133 -224 -316 -288 -407 -381
-540 -803 -1138 -1209 -1710 -79 -113 -170 -241 -201 -285 -119 -169 -446
-633 -482 -684 -33 -47 -36 -56 -24 -70 14 -17 117 -162 436 -616 190 -270
269 -382 504 -715 60 -85 130 -185 155 -221 25 -36 74 -106 109 -155 94 -132
619 -879 725 -1029 50 -71 116 -166 147 -210 317 -448 390 -555 390 -564 0
-16 -291 -15 -311 1 -9 7 -108 146 -221 308 -288 414 -815 1168 -978 1400
-143 204 -603 861 -675 965 -54 79 -272 391 -369 530 -43 61 -81 111 -85 113
-5 1 -105 -136 -224 -305 -119 -169 -312 -445 -431 -613 -118 -168 -241 -343
-274 -390 -32 -47 -106 -152 -164 -235 -558 -794 -680 -968 -766 -1090 -55
-77 -181 -257 -282 -400 -100 -143 -189 -268 -197 -277 -14 -16 -36 -18 -159
-18 -79 0 -145 4 -148 8 -2 4 21 44 53 87 71 98 357 504 596 845 98 140 260
370 359 510 397 563 418 593 570 811 44 63 183 260 309 439 127 179 277 393
335 475 58 83 139 197 179 254 40 57 73 107 73 112 0 5 -15 30 -34 56 -80 114
-611 866 -741 1048 -151 213 -363 513 -558 790 -66 94 -141 199 -167 235 -26
36 -107 151 -180 255 -73 105 -147 209 -164 232 -17 23 -41 57 -54 75 -29 43
-88 126 -310 440 -100 142 -182 260 -182 263 0 3 73 4 161 3 l162 -3 189 -270z
m6356 -3192 l-3 -3468 -125 0 -125 0 -3 3455 c-1 1900 0 3461 3 3468 3 9 39
12 130 12 l125 0 -2 -3467z"/>
</g>
</svg>
